REM DIRINDEX 1\2,1\3,1\4,1\5,1\6
REM DIRNAME cjc129,folder01,folder02,folder03,folder04,folder05
TITLE ""
FILE "DISC1Track32.mp3" MP3
  TRACK 01 AUDIO
    TITLE "0:"
    INDEX 01 00:00:00
  TRACK 02 AUDIO
    TITLE "3:cjc129_0899"
    INDEX 01 00:00:05
  TRACK 03 AUDIO
    TITLE "0:"
    INDEX 01 00:01:64
  TRACK 04 AUDIO
    TITLE "5:cjc129_0900"
    INDEX 01 00:02:18
  TRACK 05 AUDIO
    TITLE "0:"
    INDEX 01 00:04:48
  TRACK 06 AUDIO
    TITLE "4:cjc129_0901"
    INDEX 01 00:05:38
  TRACK 07 AUDIO
    TITLE "0:"
    INDEX 01 00:07:19
  TRACK 08 AUDIO
    TITLE "6:cjc129_0902"
    INDEX 01 00:07:52
  TRACK 09 AUDIO
    TITLE "0:"
    INDEX 01 00:12:18
  TRACK 10 AUDIO
    TITLE "3:cjc129_0903"
    INDEX 01 00:13:71
  TRACK 11 AUDIO
    TITLE "0:"
    INDEX 01 00:15:30
  TRACK 12 AUDIO
    TITLE "5:cjc129_0904"
    INDEX 01 00:15:60
  TRACK 13 AUDIO
    TITLE "0:"
    INDEX 01 00:17:10
  TRACK 14 AUDIO
    TITLE "4:cjc129_0905"
    INDEX 01 00:18:01
  TRACK 15 AUDIO
    TITLE "0:"
    INDEX 01 00:19:40
  TRACK 16 AUDIO
    TITLE "6:cjc129_0906"
    INDEX 01 00:19:67
  TRACK 17 AUDIO
    TITLE "0:"
    INDEX 01 00:24:24
  TRACK 18 AUDIO
    TITLE "3:cjc129_0907"
    INDEX 01 00:26:01
  TRACK 19 AUDIO
    TITLE "0:"
    INDEX 01 00:27:04
  TRACK 20 AUDIO
    TITLE "5:cjc129_0908"
    INDEX 01 00:27:38
  TRACK 21 AUDIO
    TITLE "0:"
    INDEX 01 00:28:45
  TRACK 22 AUDIO
    TITLE "4:cjc129_0909"
    INDEX 01 00:29:38
  TRACK 23 AUDIO
    TITLE "0:"
    INDEX 01 00:30:42
  TRACK 24 AUDIO
    TITLE "6:cjc129_0910"
    INDEX 01 00:31:00
  TRACK 25 AUDIO
    TITLE "0:"
    INDEX 01 00:36:15
  TRACK 26 AUDIO
    TITLE "3:cjc129_0911"
    INDEX 01 00:37:63
  TRACK 27 AUDIO
    TITLE "0:"
    INDEX 01 00:39:21
  TRACK 28 AUDIO
    TITLE "5:cjc129_0912"
    INDEX 01 00:39:51
  TRACK 29 AUDIO
    TITLE "0:"
    INDEX 01 00:42:63
  TRACK 30 AUDIO
    TITLE "4:cjc129_0913"
    INDEX 01 00:43:54
  TRACK 31 AUDIO
    TITLE "0:"
    INDEX 01 00:45:10
  TRACK 32 AUDIO
    TITLE "6:cjc129_0914"
    INDEX 01 00:45:41
  TRACK 33 AUDIO
    TITLE "0:"
    INDEX 01 00:49:31
  TRACK 34 AUDIO
    TITLE "3:cjc129_0915"
    INDEX 01 00:51:05
  TRACK 35 AUDIO
    TITLE "0:"
    INDEX 01 00:52:34
  TRACK 36 AUDIO
    TITLE "5:cjc129_0916"
    INDEX 01 00:52:65
  TRACK 37 AUDIO
    TITLE "0:"
    INDEX 01 00:54:72
  TRACK 38 AUDIO
    TITLE "4:cjc129_0917"
    INDEX 01 00:55:63
  TRACK 39 AUDIO
    TITLE "0:"
    INDEX 01 00:57:15
  TRACK 40 AUDIO
    TITLE "6:cjc129_0918"
    INDEX 01 00:57:48
  TRACK 41 AUDIO
    TITLE "0:"
    INDEX 01 01:01:48
  TRACK 42 AUDIO
    TITLE "3:cjc129_0919"
    INDEX 01 01:03:26
  TRACK 43 AUDIO
    TITLE "0:"
    INDEX 01 01:05:09
  TRACK 44 AUDIO
    TITLE "5:cjc129_0920"
    INDEX 01 01:05:44
  TRACK 45 AUDIO
    TITLE "0:"
    INDEX 01 01:07:37
  TRACK 46 AUDIO
    TITLE "4:cjc129_0921"
    INDEX 01 01:08:27
  TRACK 47 AUDIO
    TITLE "0:"
    INDEX 01 01:10:12
  TRACK 48 AUDIO
    TITLE "6:cjc129_0922"
    INDEX 01 01:10:49
  TRACK 49 AUDIO
    TITLE "0:"
    INDEX 01 01:15:13
  TRACK 50 AUDIO
    TITLE "3:cjc129_0923"
    INDEX 01 01:16:63
  TRACK 51 AUDIO
    TITLE "0:"
    INDEX 01 01:18:15
  TRACK 52 AUDIO
    TITLE "5:cjc129_0924"
    INDEX 01 01:18:47
  TRACK 53 AUDIO
    TITLE "0:"
    INDEX 01 01:20:30
  TRACK 54 AUDIO
    TITLE "4:cjc129_0925"
    INDEX 01 01:21:20
  TRACK 55 AUDIO
    TITLE "0:"
    INDEX 01 01:22:46
  TRACK 56 AUDIO
    TITLE "6:cjc129_0926"
    INDEX 01 01:23:01
  TRACK 57 AUDIO
    TITLE "0:"
    INDEX 01 01:29:15
  TRACK 58 AUDIO
    TITLE "3:cjc129_0927"
    INDEX 01 01:30:67
  TRACK 59 AUDIO
    TITLE "0:"
    INDEX 01 01:32:10
  TRACK 60 AUDIO
    TITLE "5:cjc129_0928"
    INDEX 01 01:32:39
  TRACK 61 AUDIO
    TITLE "0:"
    INDEX 01 01:34:69
  TRACK 62 AUDIO
    TITLE "4:cjc129_0929"
    INDEX 01 01:35:61
  TRACK 63 AUDIO
    TITLE "0:"
    INDEX 01 01:37:01
  TRACK 64 AUDIO
    TITLE "6:cjc129_0930"
    INDEX 01 01:37:32
  TRACK 65 AUDIO
    TITLE "0:"
    INDEX 01 01:41:56
